<svg xmlns="http://www.w3.org/2000/svg" viewBox="0 0 67.76 70.7"><defs><style>.cls-1{fill:#50bca7;}.cls-2{fill:#76e5cf;}.cls-3{fill:#ffca5f;}.cls-4{fill:#7f6767;}.cls-5{fill:#bcf7db;}.cls-6{fill:#65d6c3;}</style></defs><title>blue-bird</title><g id="Layer_2" data-name="Layer 2"><g id="图层_1" data-name="图层 1"><path class="cls-1" d="M24.48,46.09c-2.54,1.6-5.6,2.3-8.43,1C8.68,43.74,7.26,38.76,6.3,31.22c-1.12-8.88-.4-17.67,0-26.58C6.45,2.24,7.22.86,9.78.42c2,3.94,1.22,8.68,2.62,12.71,2.14-2.7,2.69-6.79,7.07-6.2,3.89.52,2.65,5.1,2.6,8,1.39-1.47,3.14-4.18,5.15-2,1.41,1.52,1.08,6.88-.75,8,2.89.15,7.8-3.5,8.73.6.49,2.15-1.52,8.26-4.36,9.18,5.24-.51,4.43,1.41,3.61,4.43-.43,1.6-2.18,3.46-3.33,4.85C28.82,42.71,26.31,45.23,24.48,46.09Z"/><path class="cls-2" d="M2.69,51.59C-1.53,38.81,15.32,29.27,25.5,28.47c10.48-.83,21,2.78,25.64,11.84,5.26,10.34-6,21.92-15.27,25.17-4.53,1.58-10.35,1.73-15.13,1.25-3.47-.35-7.47-2.24-10.33-3.94C5.36,59.78,3.65,55.7,2.69,51.59Z"/><path class="cls-3" d="M2.34,50.32C1.56,50.93.75,51.54,0,52.19c.6.47,1.84,1.61,2.74,1.18C4,52.76,3,51.44,2.29,50.8"/><path class="cls-4" d="M8.31,44.37a1,1,0,0,1-.14,1.4,1.08,1.08,0,0,1-1.47-.13,1,1,0,0,1,.14-1.4A1.08,1.08,0,0,1,8.31,44.37Z"/><path class="cls-5" d="M21.82,49.68c-5,1.26-17.13,6.44-12.2,12.6.26.17.52.34.79.5,2.86,1.7,6.86,3.59,10.33,3.94,4.78.48,10.61.33,15.13-1.25A28.86,28.86,0,0,0,49.38,54.94c-1.69-2-5.25-3.63-6.9-4.44C36.22,47.43,28.4,48,21.82,49.68Z"/><path class="cls-6" d="M26.44,46.24c-3,0-6-1-7.63-3.57-4.2-6.66-2.5-11.56,1.07-18.35,4.21-8,9.9-15,15.43-22.17C36.8.21,38.24-.55,40.63.43c-.61,4.34-4,7.88-5.18,12,3.35-1.13,6.18-4.26,9.5-1.48,2.95,2.47-.74,5.64-2.46,8,2-.5,5-1.85,5.47,1,.3,2-3.08,6.31-5.26,6.28,2.33,1.64,8.54,1.16,6.94,5.07-.84,2.05-6.06,6.1-9,5.38,4.67,2.32,2.88,3.49.45,5.59C39.83,43.4,37.3,44,35.54,44.59,32,45.69,28.46,46.48,26.44,46.24Z"/><path class="cls-2" d="M48.31,44.54c4.35-2,10.85-5.73,15.85-5.53,1.83.07,2.74.46,3.31,2.12A24.1,24.1,0,0,1,61.4,43.7c2-.08,5.76-.14,6.32,2.38.48,2.15-3.15,3.15-5.05,2.42.56,1,1.82,2.67,1.3,3.82-.85,1.86-4.05,1.06-5.54.55C54,51.33,49.2,49,48.31,44.54Z"/><path class="cls-3" d="M30.38,64.22c-2.36-.49-4.53,3.87-4.73,5.66a2.21,2.21,0,0,0,1,.2c.31-1,.23-2.44,1.46-2.76-.28,1.05-1.53,3.46.43,3.38C29,68.4,31.81,67,32.11,64.63A11.14,11.14,0,0,0,30.38,64.22Z"/></g></g></svg>