<svg xmlns="http://www.w3.org/2000/svg" xmlns:xlink="http://www.w3.org/1999/xlink" viewBox="0 0 125.85 189.08"><defs><style>.cls-1{fill:none;}.cls-2{isolation:isolate;}.cls-3{fill:#ff7c3b;}.cls-4{clip-path:url(#clip-path);}.cls-5{fill:#ffda9f;}.cls-6{fill:#543f36;}.cls-7{fill:#ff8f8f;}.cls-8{fill:#ff9671;}.cls-9{fill:#bc6a46;opacity:0.31;mix-blend-mode:multiply;}.cls-10{fill:#ff5910;}</style><clipPath id="clip-path"><path class="cls-1" d="M23.45,64.91C28.28,50.22,47.13,4.83,52.26,0c5.28,7.88,12.38,39.82,12.38,39.82,2.91,3.2,11.56,4,16.46,5.26,7.72-10,29.79-33.26,29.79-33.26,5.06,8.85,2.66,28.48,1.19,38.47-1.55,10.47-9.71,40-9.71,40-1.56,2.58-20,9.55-34.7,13.91-18,5.33-22.44,1-33.29-16.15C24.21,71.94,22.67,67.29,23.45,64.91Z"/></clipPath></defs><title>fox</title><g class="cls-2"><g id="Layer_2" data-name="Layer 2"><g id="图层_1" data-name="图层 1"><path class="cls-3" d="M55.82,92c-2,9.53-9.94,17.5-11.45,27.45A105.92,105.92,0,0,0,44,147.13c.48,4,0,11.92,2.85,15.45,3.5,4.32,14.87,5,20.68,5.6,9.72,1,38.64,3.89,44-4.74,4-6.33-2.5-17.92-4.57-23.5a202.49,202.49,0,0,0-19.6-38.79c-4.47-7-7.33-10.2-17.25-11.41C66.79,89.33,58.9,88.21,55.82,92Z"/><path class="cls-3" d="M23.45,64.91C28.28,50.22,47.13,4.83,52.26,0c5.28,7.88,12.38,39.82,12.38,39.82,2.91,3.2,11.56,4,16.46,5.26,7.72-10,29.79-33.26,29.79-33.26,5.06,8.85,2.66,28.48,1.19,38.47-1.55,10.47-9.71,40-9.71,40-1.56,2.58-20,9.55-34.7,13.91-18,5.33-22.44,1-33.29-16.15C24.21,71.94,22.67,67.29,23.45,64.91Z"/><g class="cls-4"><path class="cls-5" d="M17.35,72c-.4-5.55,5.21-6.93,11.48-7.71,7.31-.9,21.82.47,25.5,12.78,2.12,7.09-3.26,15.5-5.18,22.31A29.79,29.79,0,0,0,55.28,102a46,46,0,0,1,6-11.12c4.75-6.51,6.78-9.49,19-12.2,11.53-2.55,21.67,6.5,24.38,16.11.61,2.15,3.64.84,2.79,3.06-2.18,5.69-8,9.27-14.18,11.35A208.42,208.42,0,0,1,61,117.42c-8.62,1.42-18.87,1.86-26.93-2.55S26.27,103.42,23.45,96c-2.74-7.17-8.88-16.52-6.1-24Z"/></g><path class="cls-6" d="M82,89.84a2.6,2.6,0,0,1-3.22,1.61,2.43,2.43,0,0,1-1.69-3.06,2.6,2.6,0,0,1,3.22-1.61A2.43,2.43,0,0,1,82,89.84Z"/><path class="cls-6" d="M43.19,78.33A2.6,2.6,0,0,1,40,79.93a2.43,2.43,0,0,1-1.69-3.06,2.6,2.6,0,0,1,3.22-1.61A2.43,2.43,0,0,1,43.19,78.33Z"/><path class="cls-6" d="M47.25,98.85c3.3,1.05,6.86,1.32,10.11,2.49-.81,2.13-4.6,4.18-6.74,3.64C49.1,104.59,46.76,99.93,47.25,98.85Z"/><path class="cls-7" d="M112,18.08a67.93,67.93,0,0,0-5.61,9c-2.66,4.82-5,9.7-7.26,14.76-.91,2.07-4.51,9-4,11.49s6.82,3,8.74,2.77a5.08,5.08,0,0,0,4.34-2.61c3.84-6.84,3.08-17.21,3.75-24.42.26-2.77.12-5.38.25-8.09A15.69,15.69,0,0,0,112,18.08Z"/><path class="cls-7" d="M50.22,5.3a108.82,108.82,0,0,0,1.18,11.21c.8,4.61.91,11.11,1.15,15.77a7.45,7.45,0,0,1-1.78,5.49c-1.5,1.8-4.84.75-6.74,0-1.69-.66-3.09-1.59-3.42-3.39-1.2-6.55,3.77-14.46,6-20.33C47.44,11.79,48.83,6.54,50.22,5.3Z"/><path class="cls-8" d="M85.34,45.56H85.2a.64.64,0,0,1-.52-.75,5.72,5.72,0,0,1,1.86-2.56c.2-.19.4-.37.56-.54s.53-.55.81-.82A19.09,19.09,0,0,0,89.62,39a.7.7,0,0,1,.93-.15.62.62,0,0,1,.15.89,20.12,20.12,0,0,1-1.83,2l-.78.8c-.17.19-.38.38-.61.6A5,5,0,0,0,86,45,.66.66,0,0,1,85.34,45.56Z"/><path class="cls-8" d="M91.3,37.93a.69.69,0,0,1-.45-.17.61.61,0,0,1,0-.9,9.16,9.16,0,0,0,.94-1.23c.15-.22.3-.43.45-.64l.31-.44a5.9,5.9,0,0,1,2.4-2.34.68.68,0,0,1,.86.37.63.63,0,0,1-.39.82c-.62.22-1.28,1.17-1.76,1.85l-.33.46c-.15.2-.29.4-.42.6a10.44,10.44,0,0,1-1.08,1.4A.68.68,0,0,1,91.3,37.93Z"/><path class="cls-8" d="M96.62,31.23a.71.71,0,0,1-.37-.11.62.62,0,0,1-.19-.88,18.88,18.88,0,0,1,1.25-1.54c.36-.41.72-.82,1-1.26s.49-.61.76-.9a7.52,7.52,0,0,0,.94-1.19.69.69,0,0,1,.91-.25.62.62,0,0,1,.27.86,8.53,8.53,0,0,1-1.09,1.41c-.24.27-.48.53-.68.81-.34.46-.72.9-1.1,1.34A17.32,17.32,0,0,0,97.17,31,.68.68,0,0,1,96.62,31.23Z"/><path class="cls-8" d="M103.07,23.87l-.17,0a.63.63,0,0,1-.48-.78,5.76,5.76,0,0,1,2.16-2.46,10.76,10.76,0,0,0,.94-.8l.44-.42c.47-.44,1.36-1.26,1.31-1.72a.67.67,0,0,1,1.33-.11c.1,1.06-.95,2-1.71,2.74l-.4.38a11.86,11.86,0,0,1-1.06.91c-.7.55-1.57,1.24-1.73,1.81A.66.66,0,0,1,103.07,23.87Z"/><path class="cls-8" d="M102.69,28.61a.68.68,0,0,1-.4-.12.61.61,0,0,1-.14-.89c.68-.88,1.42-1.73,2.15-2.58.43-.5.86-1,1.28-1.51a.69.69,0,0,1,.94-.11.61.61,0,0,1,.11.89c-.43.51-.86,1-1.3,1.53-.72.83-1.44,1.67-2.11,2.53A.68.68,0,0,1,102.69,28.61Z"/><path class="cls-8" d="M97.05,36.9a.7.7,0,0,1-.3-.07.62.62,0,0,1-.3-.85,10.5,10.5,0,0,1,1.41-1.92c.26-.3.51-.59.74-.89s.38-.47.61-.73a5.51,5.51,0,0,0,1.29-1.94.66.66,0,0,1,.77-.52.64.64,0,0,1,.55.73,6.06,6.06,0,0,1-1.58,2.53c-.21.24-.4.46-.56.67s-.52.64-.79,1a9.56,9.56,0,0,0-1.26,1.68A.67.67,0,0,1,97.05,36.9Z"/><path class="cls-8" d="M90.38,44a.68.68,0,0,1-.52-.23.61.61,0,0,1,.09-.89,10.6,10.6,0,0,0,1.45-1.52c.2-.24.41-.48.61-.71.78-.87,1.57-1.71,2.38-2.55a.7.7,0,0,1,.95,0,.61.61,0,0,1,0,.9c-.8.83-1.58,1.66-2.35,2.52-.19.21-.38.44-.58.68a11.56,11.56,0,0,1-1.64,1.71A.69.69,0,0,1,90.38,44Z"/><path class="cls-8" d="M91.79,50.71a.69.69,0,0,1-.31-.07.62.62,0,0,1-.28-.86,6,6,0,0,0,.39-1c.13-.37.23-.74.34-1.12a12.64,12.64,0,0,1,.78-2.2,27.59,27.59,0,0,1,2.11-3.41l.16-.23a.69.69,0,0,1,.93-.18.62.62,0,0,1,.19.88l-.16.23a26.59,26.59,0,0,0-2,3.25,11.6,11.6,0,0,0-.7,2c-.11.39-.22.79-.36,1.18a7.2,7.2,0,0,1-.48,1.18A.67.67,0,0,1,91.79,50.71Z"/><path class="cls-8" d="M87.45,49.83l-.16,0a.63.63,0,0,1-.48-.77,5.4,5.4,0,0,1,1-1.73c.17-.22.33-.43.45-.62s.17-.25.29-.4a3,3,0,0,0,.55-.91.65.65,0,0,1,.67-.63h0a.65.65,0,0,1,.67.64,3.1,3.1,0,0,1-.8,1.65l-.24.32c-.14.22-.32.46-.51.71a4.69,4.69,0,0,0-.8,1.29A.66.66,0,0,1,87.45,49.83Z"/><path class="cls-8" d="M53.93,11.76h0a.65.65,0,0,1-.65-.65,7.3,7.3,0,0,0-.87-3.06,8.76,8.76,0,0,1-1-3.81A.65.65,0,0,1,52,3.62h0a.65.65,0,0,1,.65.65,7.7,7.7,0,0,0,.91,3.29,8.35,8.35,0,0,1,1,3.58A.65.65,0,0,1,53.93,11.76Z"/><path class="cls-8" d="M57.83,22.48h0a.65.65,0,0,1-.67-.64,11.36,11.36,0,0,0-.7-3.39,12.46,12.46,0,0,1-.74-3.61.65.65,0,0,1,.66-.64h0a.65.65,0,0,1,.67.63,11.4,11.4,0,0,0,.69,3.26,12.44,12.44,0,0,1,.76,3.75A.65.65,0,0,1,57.83,22.48Z"/><path class="cls-8" d="M60.72,32.78a.67.67,0,0,1-.62-.4,5.71,5.71,0,0,1-.31-1.47c0-.22-.05-.44-.09-.64a17,17,0,0,0-.59-2.07,11.92,11.92,0,0,1-.78-3.46.65.65,0,0,1,.66-.64h0a.65.65,0,0,1,.67.63,11,11,0,0,0,.72,3.1A18.54,18.54,0,0,1,61,30c0,.22.07.47.1.72a4.77,4.77,0,0,0,.23,1.15.63.63,0,0,1-.38.82A.7.7,0,0,1,60.72,32.78Z"/><path class="cls-8" d="M57.25,38.14a.65.65,0,0,1-.67-.64,19,19,0,0,0-.65-4.18,16.78,16.78,0,0,1-.65-5.07.63.63,0,0,1,.72-.58.65.65,0,0,1,.62.68,15.6,15.6,0,0,0,.62,4.7,19.89,19.89,0,0,1,.68,4.45A.65.65,0,0,1,57.25,38.14Z"/><path class="cls-8" d="M62.75,40.88a.68.68,0,0,1-.57-.31c-.94-1.48-2-3.62-2-5.44a.66.66,0,0,1,.67-.61h0a.65.65,0,0,1,.64.66c-.06,1.59,1.09,3.64,1.78,4.73a.62.62,0,0,1-.23.87A.7.7,0,0,1,62.75,40.88Z"/><path class="cls-8" d="M54.53,24.81a.65.65,0,0,1-.67-.6,18.07,18.07,0,0,0-.67-3.38,15.74,15.74,0,0,1-.73-4.51.71.71,0,0,1,.69-.62.65.65,0,0,1,.65.65,14.59,14.59,0,0,0,.69,4.16,19,19,0,0,1,.71,3.61.65.65,0,0,1-.63.67Z"/><path class="cls-9" d="M74.86,134.24c-1.26-2.55,1.22-7.77,3.55-9.46,2,.89,5.88,2.39,7.07,4.28-5.38-.59-5.75,3-5.89,7.21C77.82,135.32,75.32,134,74.86,134.24Z"/><path class="cls-10" d="M115.36,144.55c-2.3-2.18-8-3.52-10.51-4.66-7.78-3.52-18.8-7.35-27.22-8.57-14.36-2.08-26.94-1.65-41.39-.05-24.46,2.7-28.81-3.67-31-14C2.51,121.67.1,133.85,0,138.82c-.19,10.16,4.66,22,12.33,29.67,6.75,6.77,15,11.07,24,14.55,11.92,4.6,25.68,5.09,38.44,5.88A130.68,130.68,0,0,0,96.95,188c5.87-.68,17.19-1.85,22-5.19,7.27-5,8.54-20.16,4.91-27.15C123,154.08,120.13,147.3,115.36,144.55Z"/><path class="cls-5" d="M31.16,171.92c3.79,1.84,10.19,3.1,14.56,2.31A136,136,0,0,0,29.16,160c6.68-1.78,15.48-1.36,21.43-5.56-5.49-5.93-14.94-8-21.85-12.15,5.09-3.21,9.2-8.07,14.14-11.61-2.17.19-4.37.4-6.62.64-24.46,2.7-28.81-3.67-31-14C2.51,121.67.1,133.85,0,138.82c-.19,10.16,4.66,22,12.33,29.67,6.75,6.77,15,11.07,24,14.55l.59.2a19.28,19.28,0,0,0,4-.73C38.85,178.7,32.43,176,31.16,171.92Z"/><path class="cls-3" d="M58.18,137.47a.91.91,0,0,1-.55-.18c-2.34-1.75-11.46-2-13.88-.72a.92.92,0,0,1-1.21-.33.83.83,0,0,1,.35-1.15c2.77-1.46,12.66-1.5,15.84.87a.82.82,0,0,1,.15,1.19A.91.91,0,0,1,58.18,137.47Z"/><path class="cls-3" d="M78.44,139.86a.94.94,0,0,1-.25,0c-3.78-1-8.07-2.19-12.43-2.09a.9.9,0,0,1-.91-.83.87.87,0,0,1,.87-.87c4.67-.08,9.07,1.09,13,2.16a.84.84,0,0,1,.61,1A.89.89,0,0,1,78.44,139.86Z"/><path class="cls-3" d="M98.16,144.64a.9.9,0,0,1-.71-.34c-2.23-2.83-8.43-3.19-11.77-3.38a.86.86,0,0,1-.84-.9.85.85,0,0,1,.94-.8c3.88.22,10.37.59,13.09,4.05a.82.82,0,0,1-.18,1.19A.91.91,0,0,1,98.16,144.64Z"/><path class="cls-3" d="M119.23,152.6a.91.91,0,0,1-.63-.25c-1.59-1.52-4-2.21-6.46-3a28.59,28.59,0,0,1-4.67-1.67.82.82,0,0,1-.37-1.14.91.91,0,0,1,1.2-.36,27,27,0,0,0,4.37,1.55c2.6.77,5.29,1.56,7.19,3.38a.82.82,0,0,1,0,1.2A.91.91,0,0,1,119.23,152.6Z"/><path class="cls-3" d="M66,147.3a.9.9,0,0,1-.25,0c-1-.26-2-.58-3-.9-3.22-1-6.9-2.12-9.91-2a.81.81,0,0,1-.93-.81.87.87,0,0,1,.85-.88c3.34-.13,7.17,1,10.54,2.07,1,.32,2,.63,3,.89a.84.84,0,0,1,.61,1A.89.89,0,0,1,66,147.3Z"/><path class="cls-3" d="M90.32,150.21a.93.93,0,0,1-.34-.06,30,30,0,0,0-8.37-1.57,40.47,40.47,0,0,1-6.94-1.05.84.84,0,0,1-.61-1,.89.89,0,0,1,1.1-.58,39.21,39.21,0,0,0,6.62,1,32,32,0,0,1,8.87,1.69.83.83,0,0,1,.49,1.11A.89.89,0,0,1,90.32,150.21Z"/><path class="cls-3" d="M110,154.73a.94.94,0,0,1-.36-.07,22.46,22.46,0,0,0-5.14-1c-3.14-.39-6.39-.8-8.08-2.35a.82.82,0,0,1,0-1.2.93.93,0,0,1,1.26,0c1.28,1.17,4.36,1.55,7.08,1.89a23.52,23.52,0,0,1,5.63,1.13.83.83,0,0,1,.46,1.12A.89.89,0,0,1,110,154.73Z"/><path class="cls-3" d="M55.48,166.67a.91.91,0,0,1-.68-.3c-.56-.63-1.09-.67-2.24-.7-.38,0-.77,0-1.19-.06-3.83-.38-8.23-1.18-11.88-4.19a.82.82,0,0,1-.09-1.19.92.92,0,0,1,1.26-.08c3.26,2.69,7.16,3.41,10.89,3.78.37,0,.72,0,1,.05a4.34,4.34,0,0,1,3.55,1.3.82.82,0,0,1-.1,1.2A.92.92,0,0,1,55.48,166.67Z"/><path class="cls-3" d="M75.72,167.47c-2.14,0-4.33-.15-6.45-.29a75.78,75.78,0,0,0-8.08-.24.85.85,0,0,1-.93-.81.86.86,0,0,1,.85-.89,75.06,75.06,0,0,1,8.29.24c2.09.14,4.25.28,6.33.28a.91.91,0,0,1,.91.85A.93.93,0,0,1,75.72,167.47Z"/><path class="cls-3" d="M89.18,168.41a14.44,14.44,0,0,1-5.14-.74.83.83,0,0,1-.49-1.11.91.91,0,0,1,1.16-.46c1.93.75,4.57.65,7.13.54.88,0,1.71-.07,2.53-.07a.85.85,0,1,1,0,1.69h0c-.76,0-1.57,0-2.41.07S90.11,168.41,89.18,168.41Z"/><path class="cls-3" d="M103.83,168.26a.85.85,0,1,1,0-1.69,35.16,35.16,0,0,0,12.86-3.1.91.91,0,0,1,1.19.4.83.83,0,0,1-.42,1.13,37.15,37.15,0,0,1-13.62,3.27Z"/><path class="cls-3" d="M69.87,158.74c-4.36,0-9.21-.21-12.85-1.69a.83.83,0,0,1-.47-1.11.9.9,0,0,1,1.17-.44c4,1.64,9.93,1.59,14.66,1.54h2.28a.85.85,0,1,1,0,1.69l-2.26,0Z"/><path class="cls-3" d="M100,160a1,1,0,0,1-.3,0,15,15,0,0,0-5.25-.29c-.77,0-1.48.09-2.21.08a40.79,40.79,0,0,1-4.07-.29,30.27,30.27,0,0,0-4.86-.25.84.84,0,0,1-.95-.79.86.86,0,0,1,.83-.9,32.07,32.07,0,0,1,5.17.26c1.29.13,2.63.27,3.89.28.64,0,1.37,0,2.1-.08a16.63,16.63,0,0,1,5.95.39.84.84,0,0,1,.54,1.08A.89.89,0,0,1,100,160Z"/><path class="cls-3" d="M83.57,154.73a.91.91,0,0,1-.39-.08c-3.26-1.49-8.62-1.5-11.5-1.51a.85.85,0,1,1,0-1.69h0c4.49,0,9.08.22,12.27,1.68a.83.83,0,0,1,.42,1.13A.9.9,0,0,1,83.57,154.73Z"/><path class="cls-3" d="M70.87,177.82a90.34,90.34,0,0,1-19.64-2.41.85.85,0,0,1-.68-1,.9.9,0,0,1,1.06-.64,88.55,88.55,0,0,0,19.26,2.37.85.85,0,1,1,0,1.69Z"/><path class="cls-3" d="M82,178.35h-2.7a.85.85,0,1,1,0-1.69h1.6c5.16,0,10.5,0,15.5-1a.89.89,0,0,1,1.06.64.85.85,0,0,1-.68,1A71.93,71.93,0,0,1,82,178.35Z"/><path class="cls-3" d="M106.8,177a.88.88,0,0,1-.88-.72.85.85,0,0,1,.75-1,64.59,64.59,0,0,0,7.42-1.49,21.86,21.86,0,0,0,2.95-1.1,18,18,0,0,1,4.2-1.39.89.89,0,0,1,1,.69.85.85,0,0,1-.73,1,16.29,16.29,0,0,0-3.76,1.27,23.33,23.33,0,0,1-3.2,1.19,65.74,65.74,0,0,1-7.64,1.53Z"/><path class="cls-3" d="M73.08,184.92c-2.85,0-5.58-.36-7.35-1.72a.82.82,0,0,1-.14-1.19.93.93,0,0,1,1.25-.13c2.33,1.77,7.31,1.39,11.33,1.08,1.39-.11,2.71-.21,3.78-.21a.85.85,0,1,1,0,1.69c-1,0-2.29.1-3.64.2C76.65,184.78,74.84,184.92,73.08,184.92Z"/><path class="cls-3" d="M98.16,183.63a15.05,15.05,0,0,1-2.88-.26.85.85,0,0,1-.69-1,.9.9,0,0,1,1.05-.66c3.29.64,7-.19,10.22-.92l1.84-.4a.89.89,0,0,1,1.06.65.85.85,0,0,1-.68,1l-1.81.4A37.47,37.47,0,0,1,98.16,183.63Z"/><path class="cls-3" d="M54.39,182.86a.91.91,0,0,1-.33-.06,22.13,22.13,0,0,0-5.5-1.08,26.17,26.17,0,0,1-5.54-1,.84.84,0,0,1-.54-1.08.9.9,0,0,1,1.14-.51,24.46,24.46,0,0,0,5.15.94,23.8,23.8,0,0,1,6,1.19.83.83,0,0,1,.49,1.1A.89.89,0,0,1,54.39,182.86Z"/></g></g></g></svg>