<svg xmlns="http://www.w3.org/2000/svg" viewBox="0 0 346.3 625.41"><defs><style>.cls-1{fill:#aa7f61;}.cls-2{fill:#f7c90d;}.cls-3{fill:#ff953e;}.cls-4{fill:#8e684c;}.cls-5{fill:#664935;}.cls-6{fill:#66352b;}.cls-7{fill:#f4b30f;}.cls-8{fill:#ffdb45;}</style></defs><title>giraffe</title><g id="Layer_2" data-name="Layer 2"><g id="图层_1" data-name="图层 1"><path class="cls-1" d="M120.79,84.53c14.61-15,30.66,19.12,19.41,34.84,17.8,5.56,15.74,26.49,1.94,38.66,0,0,9.43,5.41,9.43,21.91,0,11.37-13.76,20.34-10.12,21.66,5.93,2.16,5.93,7,9,17.74,1.22,4.21-1,18.11-7.49,25.09,0,0,14.45,26.37-.76,38.91,6.87,9.66,10.32,19.49-.09,32.08,16.66,9.07,11.8,27.61,4,41.06-41.43,16.78-29.25-123.32-30-148.65A871.77,871.77,0,0,1,120.79,84.53Z"/><path class="cls-2" d="M94.94,67.31c-13.61-.52-26.34,1.95-39.8,3-12,.91-34,5.09-44.88,13.27C2.51,89.38-.76,104.33.15,113.73c1.91,19.7,13.38,31.61,31.87,34.8,28.36,4.89,57.7-16.62,65.66,19.86,9.32,42.73,6.7,194.37,3.62,224.6-1.07,10.53-9.86,56.35-3.18,66.69,10.84,16.79,24.71-25.45,31.91-33.54,8-9,14.21-13.66,16.35-25.46,3.6-19.83-3.39-48.74-5.37-68.81-4-41.07-7.09-79.62-7.09-121.21C133.9,180.55,146,62.25,94.94,67.31Z"/><path class="cls-2" d="M94.34,69.67c2.86-13.53,8.8-32.24,24-30.29,12.09,1.55,14.8,12.59,10.28,24.54-3.2,8.46-13.86,23.57-23.6,21.18C98.91,83.59,97,75.27,94.34,69.67Z"/><path class="cls-3" d="M100.43,66c1.82-8.61,5.6-20.5,15.28-19.26,7.69,1,9.41,8,6.54,15.61-2,5.38-8.81,15-15,13.47C103.34,74.89,102.11,69.6,100.43,66Z"/><path class="cls-2" d="M87.52,23c-1.19,4.15-1.17,8.86-1.72,13.16-.89,6.87-2.14,13.71-3,20.57-.73,5.88-.82,12.14-2.41,17.86,1.31.56,2.77.3,4.16.37a56.94,56.94,0,0,0,2.08-10.37c.78-6.56,3.25-13.13,4.93-19.52,1.37-5.22,2.52-10.58,3.74-15.86.53-2.3,1.47-5.21.41-7.46C93.67,22.3,87.79,21,87.52,23Z"/><path class="cls-4" d="M103.19,15.93a11.51,11.51,0,0,1-14.26,8.35,12.13,12.13,0,0,1-8-14.86A11.51,11.51,0,0,1,95.19,1.07,12.13,12.13,0,0,1,103.19,15.93Z"/><path class="cls-2" d="M66.87,23.36c.12,4.33,1.57,8.8,2.34,13.06,1.23,6.82,2.1,13.71,3.36,20.51,1.08,5.82,2.88,11.8,3.1,17.74,1.41.1,2.72-.63,4.06-1a57.12,57.12,0,0,0-1.15-10.52C77.34,56.65,77.7,49.6,77.37,43c-.27-5.41-.8-10.87-1.24-16.28-.19-2.35-.17-5.43-1.86-7.22C72.49,20.66,66.51,21.33,66.87,23.36Z"/><path class="cls-4" d="M79.62,11.5a11.58,11.58,0,1,1-23.11,1.11A11.58,11.58,0,1,1,79.62,11.5Z"/><path class="cls-5" d="M74.6,95.8c-4.19,0-7.37-2.2-10.28-4.52a1.57,1.57,0,0,1-.24-2.22,1.62,1.62,0,0,1,2.25-.24c3.92,3.13,6.66,4.53,10.75,3.49,3-.76,4.68-2.38,5.1-4.95a1.6,1.6,0,0,1,3.16.51c-.63,3.83-3.22,6.43-7.47,7.5A13.29,13.29,0,0,1,74.6,95.8Z"/><path class="cls-1" d="M57.87,139.37a65.54,65.54,0,0,0-.58-31.12C54.52,97.87,47.17,89.43,40.1,81.89c-1.89-2-5.77-4.64-8.71-7.46-8.06,2.17-15.9,5.17-21.14,9.12C2.51,89.38-.76,104.33.15,113.73c1.91,19.7,13.38,31.61,31.87,34.8a71,71,0,0,0,19.07.25C55.13,146.44,56.68,144.61,57.87,139.37Z"/><path class="cls-6" d="M28.54,128.58a22.58,22.58,0,0,1-7.12-1.24.79.79,0,0,1-.49-1,.8.8,0,0,1,1-.49c4,1.38,9.31,1.8,12.2-.36,1.52-1.14,2.22-2.94,2.07-5.34a.8.8,0,0,1,1.6-.1c.19,3-.72,5.22-2.7,6.7A10.93,10.93,0,0,1,28.54,128.58Z"/><path class="cls-4" d="M134.34,237.44c-.27-8.83-.44-17.73-.44-26.78,0-12.52,2.09-40.27.87-68.06a9.14,9.14,0,0,0-.87-.57C132.1,157.66,102.73,232.41,134.34,237.44Z"/><path class="cls-4" d="M126.11,249.23c-15.75,6-17.43,51.28,4.51,43.61.48-12.78,1.55-27.14-3-38.74Z"/><path class="cls-4" d="M120.65,344.43c6.43-14.38-6-19.32-16.71-23.26-.16,12.19-.41,23.69-.72,33.91C110.42,353.27,119,348.18,120.65,344.43Z"/><path class="cls-7" d="M113.26,473.09c-2.36,34.19-8.2,92-11.73,125.94-.32,3.1-.67,6.3.11,9,1.51,5.18,5.14,3.81,10,3.89,2-11.79,2.57-23.75,5.71-35.39,6-22.06,25.1-47.16,27.65-70.24C147,488.17,123.87,473.46,113.26,473.09Z"/><path class="cls-4" d="M101.27,605.9c-.35,5.1-.74,10.19-1.05,15.29-.22,3.65,2.47,2.73,5.53,3,4.25.32,7.53,0,7.52-5.21,0-2.21-.14-6.89-1.82-8.37-1.18-1-3.54-1.17-5-1.75A15.11,15.11,0,0,1,101.27,605.9Z"/><path class="cls-4" d="M260.41,600.2c-.92,2.06-4.15,13.71-3.47,19.7a118.53,118.53,0,0,0,12.85,0c.1-2.53,0-5.11,0-7.66.05-2.94,1.46-6,.78-8.87C266.91,603.17,264.55,601.83,260.41,600.2Z"/><path class="cls-7" d="M225.26,496.41c1,17.77,21.89,32.23,34.61,40.79,6.28,4.23,7.19,11.21,7.69,19.42,1.15,19.24-12.08,46.29-6.91,50.67,12.85,6.54,14.82-17.57,16.39-25.32,2.64-13,7.13-25.53,8.35-38.71,1.47-15.88-2.87-24.54-6.53-40.24-2.07-8.87-2.83-25.57-4.26-34.75-.94-6-1-26.95-5.49-31C248.78,446.75,234.29,477.32,225.26,496.41Z"/><path class="cls-2" d="M142.45,343.38c2.61,21.93,34.74,28.51,46.8,28.48,25.08-.08,49.08-1.09,72.61,9.77,15.09,7,23.88,15.64,32,32.69a99,99,0,0,1,8.22,30c1.94,22-13.45,42.37-26.79,55.49a40.7,40.7,0,0,1-23.82,11.86c-25.77,3.44-53.74,3.84-79.67,2.43-24.36-1.33-50.43-7.67-64.66-33.54-5.8-10.54-10.49-21.53-11.43-34-1.9-25.08,5.44-42.43,16.59-64C118,371.43,132,356.72,142.45,343.38Z"/><path class="cls-8" d="M246.26,487.2c-9.7-5.06-21.8-5.62-32.46-5.5-12.72.14-25.15,2.06-37.89,2.05-13,0-24.21.4-32.64-11.18-6.45-8.86-9.16-21-14.59-30.76-3.41-6.13-10-19.09-17.43-20.41-2.44-.43-6.84.35-7.38,3.26-7.62,5.65-4.43,24-4.44,31.11,0,3,.11,6,.34,9a114.61,114.61,0,0,0,7.35,15.8c14.22,25.87,40.3,32.21,64.66,33.54,25.93,1.41,53.91,1,79.67-2.43a41.48,41.48,0,0,0,8.07-1.93,6.12,6.12,0,0,0,1.15-4.14C260.17,499.43,251.47,489.93,246.26,487.2Z"/><path class="cls-2" d="M138.17,463.58c-4.31,36.32-7.76,102.8-9,136.93-.11,3.12-.23,6.33.73,8.94,1.87,5.06,5.39,3.42,10.2,3.13,1.14-11.91.93-23.88,3.26-35.72,4.42-22.44,31.56-69.89,32.51-93.1C176.67,465.57,148.77,463.17,138.17,463.58Z"/><path class="cls-4" d="M129.42,607.38c0,5.11,0,10.22,0,15.33,0,3.65,2.65,2.54,5.72,2.54,4.26,0,7.51-.59,7.14-5.76-.16-2.2-.61-6.86-2.39-8.21-1.25-1-3.61-.9-5.12-1.37A15,15,0,0,1,129.42,607.38Z"/><path class="cls-4" d="M290,600.2c-.92,2.06-4.15,13.71-3.47,19.7a118.53,118.53,0,0,0,12.85,0c.1-2.53,0-5.11,0-7.66.05-2.94,1.46-6,.78-8.87C296.52,603.17,294.17,601.83,290,600.2Z"/><path class="cls-2" d="M249.24,482c-2.6,25.45,27.52,46.6,40.24,55.16,6.28,4.23,7.19,11.21,7.69,19.42,1.15,19.24-12.08,46.29-6.91,50.67,12.85,6.54,14.82-17.57,16.39-25.32,2.64-13,7.13-25.53,8.35-38.71,1.47-15.88-2.87-24.54-6.53-40.24-2.07-8.87-2.83-25.57-4.26-34.75-.94-6-1-26.95-5.49-31C278.39,446.75,258.27,463,249.24,482Z"/><path class="cls-2" d="M326.65,560.46a3.21,3.21,0,0,1-2.59-1.3,3.14,3.14,0,0,1,.7-4.42c5.87-4.23,7.64-17.59,8.39-23.3a116.69,116.69,0,0,0-2.52-44.33c-10.24-39.27-26.1-50.13-34.63-56a34.08,34.08,0,0,1-4.89-3.74,3.14,3.14,0,0,1,0-4.47,3.23,3.23,0,0,1,4.53,0,31.78,31.78,0,0,0,4,3c9.21,6.3,26.35,18,37.18,59.59a123,123,0,0,1,2.67,46.73c-1.42,10.76-3.84,22.45-11,27.59A3.22,3.22,0,0,1,326.65,560.46Z"/><path class="cls-4" d="M339.93,545.35c-4.6-4.8-6.94-6.1-12,.29-4,5.09-8.32,10.29-7.8,17,2.75,1.84,3.5-1.49,4.89-2.43-1.29,4.26-1.86,8.27.77,11.45,3.69,4.46,8.43,0,8.57-5,.85,1.84,3.24,8.76,6.89,6.09,1.73-1.26-.11-6.81,0-8.86,5.18,2.25,5.73-3.39,4.51-7.24C344.06,551.26,342.4,548.27,339.93,545.35Z"/><path class="cls-4" d="M158.76,409.49c-23.83-.86-14.27,34.47.63,30.81,6.79-1.67,10.69-11.2,10.35-17.51C169.38,416,164.82,412.75,158.76,409.49Z"/><path class="cls-4" d="M209.23,399.2a122.51,122.51,0,0,1-17.69,11.68c-3.64,1.88-8.11,3.36-10.86,6.62-3.51,4.17-4.16,10.52,0,14.33,6.16,5.64,19.18,6.43,26.79,5.82,6-.48,9.75-3.17,14.25-7.56,5.75-5.61,10.22-18.2,5.2-25.74C223.86,399.74,213.75,395.55,209.23,399.2Z"/><path class="cls-4" d="M249.76,394.33c-3.76,7.83-9.45,27.39,2.67,28.6,7.68.77,15.17-2,17.61-9.87C273.21,402.86,255.42,382,249.76,394.33Z"/><path class="cls-4" d="M234.69,430.6c-1.67,6.92-10.1,11.45-6.63,19.33,3.54,8.06,14.58,11.45,21.46,14.75,11.93,5.73,34.42,19.13,35.59-3.76,1-19.43-21.09-18.57-34.34-22.26C246.19,437.4,238.74,431.06,234.69,430.6Z"/><path class="cls-4" d="M282.49,422.48c-2.37,1-8.16,6-6.5,8.67,1.76,2.82,11.48,1.37,13.69-.11,1-5.09-2.86-9-7.71-8"/><path class="cls-4" d="M126.63,358.6c-8.07,10.77-7.67,33.35,5,40.75,7.23,4.23,41.33,9.32,35.59-9-3.61-11.56-17.67-12.54-24.5-20.35C138.4,365.06,133.38,357.74,126.63,358.6Z"/><path class="cls-4" d="M179.62,382.42c3.22,0,15.64-2.17,18.71,0,6.16,4.28-1.74,13-6.29,14.69-4,1.51-11,2.46-14-1.35C176.29,393.43,175.44,384.3,179.62,382.42Z"/><path class="cls-4" d="M224.3,380.79c-7.45,7.1,8.81,13.07,13.79,9.74,2.05-1.37,1.94-6.46.5-8.19-2.81-3.4-10.48-2.1-14.29-2.09"/></g></g></svg>