<svg xmlns="http://www.w3.org/2000/svg" viewBox="0 0 169.03 198.38"><defs><style>.cls-1{fill:#7e7a8c;}.cls-2{fill:#a8a0b8;}.cls-3{fill:#f0dac3;}.cls-4{fill:#f38c6b;}.cls-5{fill:#3f2322;}.cls-6{fill:#643e39;}.cls-7{fill:#f6e1d0;}</style></defs><title>hippo</title><g id="Layer_2" data-name="Layer 2"><g id="图层_1" data-name="图层 1"><path class="cls-1" d="M91.31,3.39c-1.94-3.89-6.39-4.08-10-2.33-4.17,2-5.78,6-4.8,10.34a.5.5,0,0,0,.61.36,7.69,7.69,0,0,0,4.08,2.16c1.91.54,4.49,1.22,6.34.14C90.85,12.13,93.13,7.05,91.31,3.39Z"/><path class="cls-1" d="M55.49,12a6.29,6.29,0,0,0-1.3-.65,11.11,11.11,0,0,0-8.62.51c-2.1,1.12-3.72,4-4,6.35-.37,3,.81,5,3.12,6.76,3.88,3,12.29,4.11,14.58-1.55,1-2.5,1.82-6.29,0-8.6A9.87,9.87,0,0,0,55.49,12Z"/><path class="cls-2" d="M16.85,128.64c-1.15-1.15-2.42.12-3.31,1.07a11.31,11.31,0,0,1-3.54-.45c-2.09-.71-2.93-2.65-3.84-4.47A4.7,4.7,0,0,0,2,122.07c-1.92.19-2.08,2.58-1.89,4,.27,2.09,1.85,3.8,3.47,5,3.32,2.46,9.66,3.87,13,1A2.45,2.45,0,0,0,16.85,128.64Z"/><path class="cls-2" d="M47.82,158.32a6.15,6.15,0,0,0-.59-3c-.93-1.38-2.61-1.34-4.13-1.53a65.23,65.23,0,0,0-8-.44.67.67,0,0,0-.49.19.52.52,0,0,0-.56.54,16.31,16.31,0,0,0,.41,2.73,16.63,16.63,0,0,1-.09,5.92c-.47,3.41-2,6.42-3.34,9.54a35.28,35.28,0,0,1-4.35,7.93,37,37,0,0,1-7,6.62c-1.24.93-3.33,1.86-3.95,3.33-.5,1.19,2.09,3.27,2.75,3.87,1.73,1.57,3.16,3.1,5.38,4.1,2,.89,4.7-1.15,6.42-1.94,4.74-2.17,9-6.55,11.89-10.8a36.52,36.52,0,0,0,6-15.81,64.2,64.2,0,0,0,0-7.51C48.15,160.82,47.87,159.6,47.82,158.32Z"/><path class="cls-2" d="M87.35,165.07c-1.37-3.66-3.7-6.86-5.72-10.19a29.13,29.13,0,0,0-3.1-4.31,38.45,38.45,0,0,0-3.83-3.2,2.25,2.25,0,0,0-2.42-.06c-1.71.72-3.36,1-5,2-2.47,1.57-5.82,3.79-6.87,6.67-.25.68.71,1.18,1.18.69l.12-.13c2.23.69,4.59,2.85,6,4.44a36.74,36.74,0,0,1,6.34,10.67,38.29,38.29,0,0,1,2.71,11.07,22,22,0,0,1-1.5,8.7.79.79,0,0,0,.36.89c4.13,2.47,14.29,1.76,14.31-4.73,0-3.52.14-7,0-10.53A36.94,36.94,0,0,0,87.35,165.07Z"/><path class="cls-2" d="M55,69.64a.39.39,0,0,0-.16-.06c-2.12-.34-4.23.4-6.42-.07a15.52,15.52,0,0,1-7.91-5,19.39,19.39,0,0,1-4.37-8.69,41.36,41.36,0,0,1-.48-9.4h0a.72.72,0,0,0-.16-.38c.12-2.08-4-1-5.41-.59a12.46,12.46,0,0,0-4.46,2.62,9.85,9.85,0,0,0-1.6,1.47l-.07.06c-.82.82-.78,1.81-1.08,2.84a11.37,11.37,0,0,0-.32,4.31,18,18,0,0,0,.62,4,24.43,24.43,0,0,0,4.6,9.56c4.17,5.17,11.83,10.16,18.72,8.63a.66.66,0,0,0,.25-.11c2.64-.26,5-2.17,6.53-4.34.73-1,3.35-3.29,2.15-4.62A.65.65,0,0,0,55,69.64Z"/><path class="cls-2" d="M111.2,106a18,18,0,0,0-1-3.91,24.43,24.43,0,0,0-5.38-9.14c-4.59-4.8-12.65-9.13-19.38-7a.65.65,0,0,0-.24.13c-2.61.48-4.76,2.58-6.15,4.88C78.45,92,76,94.49,77.34,95.71a.65.65,0,0,0,.41.18.38.38,0,0,0,.16,0c2.14.16,4.18-.75,6.4-.47a15.52,15.52,0,0,1,8.31,4.33,19.39,19.39,0,0,1,5.09,8.29A41.3,41.3,0,0,1,99,117.41h0a.72.72,0,0,0,.19.36c.06,2.09,4,.7,5.44.13a12.47,12.47,0,0,0,4.22-3,9.91,9.91,0,0,0,1.48-1.6l.07-.07c.74-.88.62-1.87.83-2.92A11.36,11.36,0,0,0,111.2,106Z"/><path class="cls-1" d="M102.22,132.12c-.93-2.8-2.86-5.3-4.59-7.65-1.95-2.64-3.79-5.44-5.95-7.91-5.07-5.8-6.22-12.89-4.25-20.22,1.73-6.45,4.81-12.66,5.68-19.3.77-5.85-4.34-11.65-8.3-15.25-6-5.42-12.19-10.52-19.76-13.5a.61.61,0,0,0-.59.1.62.62,0,0,0-1,.44c0,.27.15.5.1.7a7.94,7.94,0,0,1-1.38,2.33,61.28,61.28,0,0,1-7.12,8,59.78,59.78,0,0,1-7.68,6.61,72.26,72.26,0,0,0-7.16,6.35A140.07,140.07,0,0,0,25.85,88.76C21.74,94,18,99.29,15.5,105.48a55.56,55.56,0,0,0-4.07,19.67,44.25,44.25,0,0,0,4.12,19.38C21,156.82,33.37,163.27,46,165.77a63.56,63.56,0,0,0,40.11-5.29c5.25-2.63,10.73-6.81,14.13-11.64a21,21,0,0,0,3.54-8.16C104.31,137.81,103.11,134.79,102.22,132.12Z"/><path class="cls-3" d="M76,85.08a41.4,41.4,0,0,1,3.63-8.77c2.59-4.15,7.21-8.33,7.86-13.36.28-2.19-1-4.47-2.22-6.17C83.76,54.61,81,54.05,79,52.46a.79.79,0,0,0-1,0c-1.52.11-3.79,3-4.74,3.93-2.59,2.52-4.62,5.53-6.88,8.34a65.84,65.84,0,0,0-9.88,17.16c-2.71,6.75-5.07,13.52-6,20.77a87.16,87.16,0,0,0,0,21.45c.64,5.62,2.69,11.34,6.83,15.34s10.63,6,16.11,4.05,7.83-7,7.09-12.51c-.4-3-1.87-5.81-3-8.54a43.46,43.46,0,0,1-3.24-10,59.86,59.86,0,0,1-1.06-8.55,87.54,87.54,0,0,1,.64-9A41.58,41.58,0,0,1,76,85.08Z"/><path class="cls-4" d="M88.25,4.38C86.9,3.63,85,5.59,84.31,6.49a17.43,17.43,0,0,0-2.62,6,.37.37,0,0,0,.45.45,1.18,1.18,0,0,0,.21-.12.61.61,0,0,0,.83-.08,12.93,12.93,0,0,1,2.17-1.61,11.1,11.1,0,0,0,2.48-1.92C88.63,8.07,90,5.32,88.25,4.38Z"/><path class="cls-4" d="M57.8,20.94a.55.55,0,0,0-.25-.62c-1.25-.73-2.37-2-3.79-2.44a18,18,0,0,0-4.44-.71c-1.51,0-5,.41-5,2.5s2.87,2.85,4.37,3.14a23.56,23.56,0,0,0,9.28-.52C58.66,22.13,58.52,20.91,57.8,20.94Z"/><path class="cls-2" d="M131.88,62.05c-.58-9.35-7.27-17.22-13.73-23.41-3.47-3.32-7.19-6.37-10.59-9.76s-7.1-7-10.83-10.2C90,12.89,82.08,6.87,73.08,5.71c-4.22-.55-8.63-.52-12.56,1.37a9.93,9.93,0,0,0-4.39,5,14.44,14.44,0,0,0-2.92,6C52,24,52.86,30.19,54.46,35.95c.89,3.21,2.45,6.06,3.59,9.17a48.6,48.6,0,0,0,4.21,9A56.29,56.29,0,0,0,74.66,68.36c2.33,1.85,4.32,4.11,6.7,5.93A63.74,63.74,0,0,0,90.76,80c5.65,2.95,12.35,4.18,18.66,4.52s11.82-2.22,16.6-6.31S132.24,67.91,131.88,62.05Z"/><path class="cls-3" d="M168.82,49.06a39.26,39.26,0,0,0-5.46-16.25,41.8,41.8,0,0,0-26.89-18.73c-11.16-2.44-23.24.53-33.3,5.37a57.36,57.36,0,0,0-13.75,9.3c-2.52,2.29-5.54,5.56-7,9a32.09,32.09,0,0,0-3.22,8.47,39.64,39.64,0,0,0,.27,18.43,35.4,35.4,0,0,0,2.87,7.92A33.58,33.58,0,0,0,88,80.09a47.89,47.89,0,0,0,15.19,11.19,35.74,35.74,0,0,0,8.56,3.1,95,95,0,0,0,10,1.16c6.86.52,13.56-1.28,20-3.53,11.62-4.08,21.38-14.87,25.1-26.48A38.58,38.58,0,0,0,168.82,49.06Z"/><path class="cls-1" d="M156.75,39a3.06,3.06,0,0,0-3.61-.65,2.23,2.23,0,0,0-1.72.87,4.13,4.13,0,0,0-.6,3.45c.16.88,1.22,1.66,2,2a3.14,3.14,0,0,0,3.09-.34A3.53,3.53,0,0,0,156.75,39Zm-1.33,3.77a1.9,1.9,0,0,1-3.15-.44,2.45,2.45,0,0,1,.07-2,.38.38,0,0,0,.11,0c.91-.25,1.77-1.21,2.74-.65A2,2,0,0,1,155.41,42.81Z"/><path class="cls-1" d="M137.63,52a3.06,3.06,0,0,0-3.61-.65,2.23,2.23,0,0,0-1.72.87,4.13,4.13,0,0,0-.6,3.45c.16.88,1.22,1.66,2,2a3.14,3.14,0,0,0,3.09-.34A3.53,3.53,0,0,0,137.63,52Zm-1.33,3.77a1.9,1.9,0,0,1-3.15-.44,2.45,2.45,0,0,1,.07-2,.38.38,0,0,0,.11,0c.91-.25,1.77-1.21,2.74-.65A2,2,0,0,1,136.3,55.77Z"/><path class="cls-1" d="M132.57,72.32c-1.83-.08-3.78.83-5.64.93a16.13,16.13,0,0,1-8-1.34c-5-2.28-6.7-6.82-8-11.69a.62.62,0,0,0-.56-.83l-.16,0a.5.5,0,0,0-.35.12.71.71,0,0,0-.66.49c-1.32,3.84-2.72,8-2.26,12.07s2.57,6.52,5.94,8.43,8,1.28,11.61.11c3.33-1.07,7.58-3.86,8.86-7.26A.82.82,0,0,0,132.57,72.32Z"/><path class="cls-1" d="M36.08,55.75a41.58,41.58,0,0,1-.47-9.34h0a.72.72,0,0,0-.16-.38c.12-2.08-4-1-5.41-.59a12.46,12.46,0,0,0-4.46,2.62,9.85,9.85,0,0,0-1.6,1.47l-.07.06c-.82.82-.78,1.81-1.08,2.84a11.37,11.37,0,0,0-.32,4.31A17.83,17.83,0,0,0,23,60.17,8.63,8.63,0,0,0,24.39,60C28,59.34,32,58.52,35.12,56.45,35.46,56.22,35.78,56,36.08,55.75Z"/><path class="cls-1" d="M111.2,106a18,18,0,0,0-1-3.91c-.38-1.07-.8-2.07-1.25-3-1.06,1.34-1.79,2.92-3.13,4.12a42.85,42.85,0,0,1-5,3.73,11.51,11.51,0,0,1-3.08,1.27A41.66,41.66,0,0,1,99,117.41h0a.72.72,0,0,0,.19.36c.06,2.09,4,.7,5.44.13a12.47,12.47,0,0,0,4.22-3,9.91,9.91,0,0,0,1.48-1.6l.07-.07c.74-.88.62-1.87.83-2.92A11.36,11.36,0,0,0,111.2,106Z"/><path class="cls-1" d="M90,177.33c-.8.67-1.56,1.36-2.41,2-1.83,1.37-5,2-7.19,2.45a20.43,20.43,0,0,1-3.66.28c0,.24.05.48.07.72a22,22,0,0,1-1.5,8.7.79.79,0,0,0,.36.89c4.13,2.47,14.29,1.76,14.31-4.73C90,184.2,90.08,180.79,90,177.33Z"/><path class="cls-1" d="M36.92,191.57c-.65-.22-1.26-.43-1.68-.62a26.13,26.13,0,0,1-6.6-4,20.21,20.21,0,0,1-3.78-4.63,42.64,42.64,0,0,1-5.23,4.57c-1.24.93-3.33,1.86-3.95,3.33-.5,1.19,2.09,3.27,2.75,3.87,1.73,1.57,3.16,3.1,5.38,4.1,2,.89,4.7-1.15,6.42-1.94A25.41,25.41,0,0,0,36.92,191.57Z"/><path class="cls-5" d="M69.48,27.9c1.5-1.17,1.86-3.46.11-4.58A3.27,3.27,0,0,0,66.76,23a3.15,3.15,0,0,0-.47.32,2.35,2.35,0,0,0-1.15,1,2.81,2.81,0,0,0,4.33,3.54Z"/><path class="cls-5" d="M87.08,14.09a3.27,3.27,0,0,0-2.83-.31,3.16,3.16,0,0,0-.47.32,2.35,2.35,0,0,0-1.15,1A2.81,2.81,0,0,0,87,18.67C88.47,17.5,88.83,15.21,87.08,14.09Z"/><path class="cls-6" d="M85.54,16.18a.58.58,0,0,0-.05-.11,1.16,1.16,0,0,0-.64-.79,1.12,1.12,0,0,0-1,0h0a.75.75,0,0,0-.1.07.78.78,0,0,0-.11.08,1.46,1.46,0,0,0-.37.87A1.14,1.14,0,0,0,84,17.38l.06,0a1.25,1.25,0,0,0,.27.07h0a1.12,1.12,0,0,0,.38,0l.17-.06.18-.09.07,0A1,1,0,0,0,85.54,16.18Z"/><path class="cls-7" d="M85,15.83a.72.72,0,0,0,0,1.45A.72.72,0,0,0,85,15.83Z"/><path class="cls-7" d="M87,15.64a.51.51,0,0,0,0,1A.51.51,0,0,0,87,15.64Z"/><path class="cls-7" d="M86.3,17.24a.41.41,0,0,0,0,.82A.41.41,0,0,0,86.3,17.24Z"/><path class="cls-6" d="M67.85,25.39a.54.54,0,0,0-.05-.11,1.15,1.15,0,0,0-.64-.79,1.12,1.12,0,0,0-1,0h0a.71.71,0,0,0-.1.07.78.78,0,0,0-.11.08,1.46,1.46,0,0,0-.37.87,1.14,1.14,0,0,0,.78,1.06l.06,0a1.24,1.24,0,0,0,.27.07h0a1.12,1.12,0,0,0,.38,0l.17-.06.19-.09.07,0A1,1,0,0,0,67.85,25.39Z"/><path class="cls-7" d="M67.32,25a.72.72,0,0,0,0,1.45A.72.72,0,0,0,67.32,25Z"/><path class="cls-7" d="M69.31,24.85a.51.51,0,0,0,0,1A.51.51,0,0,0,69.31,24.85Z"/><path class="cls-7" d="M68.61,26.44a.41.41,0,0,0,0,.82A.41.41,0,0,0,68.61,26.44Z"/><path class="cls-4" d="M95.41,50.34a6.7,6.7,0,0,0-5.13-2.92,4.32,4.32,0,0,0-3.65,1.72,6.1,6.1,0,0,0-2.25,5c.25,4,4.69,7.34,8.52,5.4a10.17,10.17,0,0,0,2-1.29,5.81,5.81,0,0,0,1.35-2.36A6.5,6.5,0,0,0,95.41,50.34Z"/><path class="cls-4" d="M165.1,51.22a6.1,6.1,0,0,0-2.25,5,6.62,6.62,0,0,0,4.93,5.82,35.91,35.91,0,0,0,1.08-12.54l-.11,0A4.32,4.32,0,0,0,165.1,51.22Z"/><path class="cls-3" d="M35.58,46.41a.72.72,0,0,0-.16-.38,1,1,0,0,0-.75-1.09c-.28,1.72-1.64,4-3.36,1.7a.64.64,0,0,0-1.17.32c0,1.28-1.75,3.44-2.92,1.67-.28-.41-1.07-.44-1.17.15a1.62,1.62,0,0,1-2.4,1.09,3.79,3.79,0,0,0-.62,1.6l.22.17c1.35.9,2.95-.24,3.67-1.53,1.57,1.09,3.61-.14,4.26-2a3.39,3.39,0,0,0,4.42-.89c0-.29,0-.57,0-.86Z"/><path class="cls-3" d="M103,116.45a.66.66,0,0,0,1-.56c0-1.43.85-4,3.33-2.59a.66.66,0,0,0,.81-.1c1-1.18.61-2.45,2.19-3.47a2.25,2.25,0,0,1,1.06-.4,10.67,10.67,0,0,0,0-1.21c-.11,0-.21,0-.33,0a4.35,4.35,0,0,0-2.62,1.37,4,4,0,0,0-.89,1.43c0,.11-.23.55-.36.91-2.19-.69-4,1-4.44,3.17a3.49,3.49,0,0,0-3.34.54,5.22,5.22,0,0,0-.53.57q0,.66.08,1.32h0a.63.63,0,0,0,.1.24A3.58,3.58,0,0,1,103,116.45Z"/><path class="cls-3" d="M27.53,195.75c-.69-1.42-2.22-1.68-3.63-1.6a3.44,3.44,0,0,0-1.41-3,3.23,3.23,0,0,0-2.8-.44,3,3,0,0,0-1.41-2.95,13.3,13.3,0,0,0-1.54,1.1,1.75,1.75,0,0,1,1.7,1.91c0,.24,0,.47-.08.71-.06.45.45.68.81.61,1.71-.3,4.21.08,3.23,2.63-.2.53.38.91.83.83,1.71-.29,3.25.16,3.41,2.1,0,.12,0,.24,0,.35a12.61,12.61,0,0,0,1.33-.6A4.56,4.56,0,0,0,27.53,195.75Z"/><path class="cls-3" d="M79.44,191.7c.29.4,1.07.46,1.18-.15.46-2.56,3-2.81,4.49-1a.67.67,0,0,0,1.11-.29c.39-1.55,2.1-3.78,3.73-3.08,0-.45,0-.89,0-1.33l-.09,0c-2.21-.27-3.8,1.17-4.58,3a3.6,3.6,0,0,0-5.62,1.3,3.86,3.86,0,0,0-3.78-.64c-.19.65-.4,1.3-.61,2a.65.65,0,0,0,0,.27C76.25,190.26,78,189.77,79.44,191.7Z"/><path class="cls-7" d="M131.84,74a8.7,8.7,0,0,0-.22-1.24,3.22,3.22,0,0,1-.06-.4c-1.14.14-2.32.51-3.48.73,0,.28,0,.57,0,.85s-.13.75-.06,1.12a1.18,1.18,0,0,0,1.32.91,7.53,7.53,0,0,0,1.66-.37C131.82,75.4,131.9,74.71,131.84,74Z"/><path class="cls-7" d="M111.26,61.34c-.25.12-.5.26-.74.39a2.36,2.36,0,0,0-1.36,1.37c-.26.82.43,3.26,1.57,3.13a6.33,6.33,0,0,0,2.14-.55A28.22,28.22,0,0,1,111.26,61.34Z"/><path class="cls-1" d="M40.31,180.09c-1.33-.52-2.67-.42-3.93-1.25a15.35,15.35,0,0,1-1.5-1.28c-.37-.32-1.13-.57-1.29-1-.07-.22-.45-.34-.56-.07a.81.81,0,0,0,.08.94,19.41,19.41,0,0,0,2.26,2.07c1.2,1.07,3.33,2,4.94,1.43A.41.41,0,0,0,40.31,180.09Z"/><path class="cls-1" d="M39.65,178.34c-.31-.5-1.07-.45-1.57-.72a4.21,4.21,0,0,1-1.66-1.56.34.34,0,0,0-.63.26,4.06,4.06,0,0,0,1.59,2.12c.58.43,1.72,1,2.26.29A.39.39,0,0,0,39.65,178.34Z"/><path class="cls-1" d="M38.88,175.14a4.25,4.25,0,0,0-2.32-.31.36.36,0,0,0,0,.68,7.61,7.61,0,0,1,1.61.49,5.64,5.64,0,0,1,1.34,1.1.48.48,0,0,0,.8-.33C40.42,176,39.5,175.4,38.88,175.14Z"/><path class="cls-1" d="M42.79,176a7.93,7.93,0,0,0-3.11-2.53A7.72,7.72,0,0,0,35.6,173a.42.42,0,0,0,0,.84,9.6,9.6,0,0,1,3.47.66,12.09,12.09,0,0,1,2.88,2.13C42.38,177,43.17,176.48,42.79,176Z"/><path class="cls-1" d="M86.55,166.16c-3.73-1.43-8.45,1-10.44,4.18a.45.45,0,0,0,.51.66l.16,0a.37.37,0,0,0,.23-.21c1.16-.82,2-1.95,3.35-2.63,1.95-1,4-.82,6.05-.9A.54.54,0,0,0,86.55,166.16Z"/><path class="cls-1" d="M83.66,169.06a3.68,3.68,0,0,0-3.56.11c-.55.28-1.39.9-1.4,1.57a.46.46,0,0,0,.85.23c.19-.37.86-.57,1.19-.82.67-.52,1.91-.2,2.67-.13C83.92,170.07,84.09,169.3,83.66,169.06Z"/><path class="cls-1" d="M84,170.79c-1.37,1.11-3,1-4.56,1.38a.37.37,0,0,0,0,.71c1.81.45,4.31.25,5.26-1.55A.45.45,0,0,0,84,170.79Z"/><path class="cls-1" d="M86.08,170.77a14.16,14.16,0,0,1-2.7,2.46c-1.43,1-2.78.9-4.41,1-.39,0-.53.64-.1.72a6.12,6.12,0,0,0,4.41-.26,7.29,7.29,0,0,0,3.53-3.4C87,170.88,86.44,170.35,86.08,170.77Z"/><path class="cls-1" d="M99.47,92.71c-2.5-.83-5,3.07-4.56,5.19.08.38.6.32.71,0A8.77,8.77,0,0,1,97,95.08a5.18,5.18,0,0,1,2.48-1.4A.51.51,0,0,0,99.47,92.71Z"/><path class="cls-1" d="M99.07,95.24a.39.39,0,0,0,0-.54L99,94.61a.54.54,0,0,0-.53-.14,2.1,2.1,0,0,0-1.21,1.18,5.23,5.23,0,0,0-.31.78c0,.12-.07.23-.12.35s0,.46-.11.65a.38.38,0,0,0,.59.46,5.15,5.15,0,0,0,.85-1.57,3.12,3.12,0,0,1,.49-.69.86.86,0,0,1,.23-.16C99,95.43,99.25,95,99.07,95.24Z"/><path class="cls-1" d="M101.11,93.41A7.56,7.56,0,0,1,99,97.06c-.77.74-2.07,1.29-2.34,2.42-.07.31.33.61.57.33.93-1.07,2.42-1.55,3.41-2.61a5.23,5.23,0,0,0,1.49-3.65A.54.54,0,0,0,101.11,93.41Z"/><path class="cls-1" d="M35.56,62.61a5.74,5.74,0,0,0-4,1.3,4.78,4.78,0,0,0-2.24,3.19.3.3,0,0,0,.29.38.72.72,0,0,0,.73-.39,4.62,4.62,0,0,1,1.16-1.54c1.21-1.12,2.64-1.34,4.09-2C36,63.42,36.11,62.71,35.56,62.61Z"/><path class="cls-1" d="M34.25,65a1.57,1.57,0,0,0-.7.29,3.75,3.75,0,0,1-.57.4,3.64,3.64,0,0,1-.64.15,1.11,1.11,0,0,0-.57.44.33.33,0,0,0,.37.49,1.38,1.38,0,0,1,.62,0,1.6,1.6,0,0,0,.76-.12,2.51,2.51,0,0,0,.66-.41l.28-.24c.13-.11.15-.3.24-.43C34.92,65.3,34.57,64.92,34.25,65Z"/><path class="cls-1" d="M37,65.2c-1.3,1.33-2.47,2.92-4.37,3.39-.7.17-.39,1.19.29,1.06a7.6,7.6,0,0,0,4.92-3.8A.54.54,0,0,0,37,65.2Z"/></g></g></svg>