<svg xmlns="http://www.w3.org/2000/svg" viewBox="0 0 249.09 223.1"><defs><style>.cls-1{fill:#ffb500;}.cls-2{fill:#ff7e00;}.cls-3{fill:#f4d8b8;}.cls-4{fill:#845012;}.cls-5{fill:#fff;}.cls-6{fill:#443c33;}.cls-7{fill:#f9ca6b;}</style></defs><title>lion</title><g id="Layer_2" data-name="Layer 2"><g id="图层_1" data-name="图层 1"><path class="cls-1" d="M168.37,173.38c-11.67-12.51-17.69-28.52-25.94-43.36-2.94-5.29-8.4-10.49-13.12-13.83.05.61.1,1.22.14,1.83.39,5.47-70.54,18.2-78.47,20.36,0,22,3,43.78,7.64,65.21,1.8,8.34,2.16,16.59,11.16,18.71,1.38.33,2.8.58,4.24.8H139q2.53-.1,5,0H154.8a34.64,34.64,0,0,0,19.27-7.3C192.52,201,180.67,186.56,168.37,173.38Z"/><path class="cls-2" d="M175.15,93.94q.12-1.4.18-2.8c3.41-2.88,7-5.65,9.77-9.21,1.63-2.08,5.62-6.84,4.87-9.49-4.81-1.12-10.86,1-15.59,4.11-2-11.69-7-22.58-14.19-30.21-11.06-11.65-27.08-19.87-44.45-23.83l.48-.58c3.44-4.22,6-7.34,5.23-13.7-6.78-4.6-14.51,5.26-18.86,12.12L101,20.21c1.49-6.62,5.07-13.63,3.45-20-8.38-1.95-14.62,11-16.5,19.71C72,20.55,56.49,24.95,44,33.7A72.73,72.73,0,0,0,13.51,83.39C7.13,82,.29,82.9,0,88c-.29,5.2,6.78,9.22,12,9.54C6.79,98-.83,100,1.06,106.18c1.26,4.1,5,4.13,8.84,2.88-3.19,1.91-5.48,4.53-4.75,9.44,1.21,8.13,8.24,3.7,13.86-.53a52.51,52.51,0,0,0,22.69,22.8,72.18,72.18,0,0,0,8,3.59c0,.28,0,.54,0,.76.15,3.85.4,6.58,2.23,9.93,1.16,2.12,2.43,5.9,5.23,4.88,1.49-.54,4.1-4.23,4.63-5.46,1,4.06.5,7.63,3.73,11,4.81,5,10.52.36,13-5C77.77,169.66,85.91,176,94,175.2c7.07-.68,10.89-8.12,13.09-14.33-1,8.51,11.42,4.63,14.76,2.07,4.37-3.34,10.23-10,10.86-16a2,2,0,0,0,.46-.18c13.7-5.39,26.18-14.62,34.67-29a50.41,50.41,0,0,0,3.8-8,16.05,16.05,0,0,0,5.26-.09c5.35-1.09,15-7,11.84-14.12C186.42,90.29,180.28,91.83,175.15,93.94Z"/><path class="cls-1" d="M146.28,52.76c-7.87-6-18.46-.17-21.4,8.41C109.58,51.58,87.09,49.06,70.1,55a36,36,0,0,0-4-8.06c-3.81-5.75-9.73-5.8-15.49-2.66-9.38,5.11-8.12,19.5-.3,25.22-14.16,19.48-15.19,49.43,8,61.55C84,144.4,138.26,147.2,145.22,112.34c1.73-8.67-1.84-22.47-5-32.11,4.46-2.25,8.33-7.27,10.69-11.68C154.2,62.39,151.59,56.78,146.28,52.76Z"/><path class="cls-3" d="M129.87,112.69c-13.3-9-28.52-14.83-44.51-15-15.73-.15-30,5-44.25,10.7A32.59,32.59,0,0,0,58.33,131c23,12,69.13,15.5,83.35-9.14A115.7,115.7,0,0,0,129.87,112.69Z"/><path class="cls-2" d="M104.53,106.79c3.65-10.46-.38-28-10.17-24.39C88.33,84.62,84.27,95,85,103.18,91.5,104.55,98.07,105.5,104.53,106.79Z"/><path class="cls-4" d="M90.25,108c-4.53-1.44-8-4.07-6.78-7.35,1.61-4.3,9.12-4.35,12.54-4.18,4.42.22,12.43,4.37,9,10.31C103.28,109.77,95.94,109.83,90.25,108Z"/><path class="cls-5" d="M65.28,91.92c-4.28-2.76-6.13-8.06-.33-15.41,4.37-5.54,12.91-4,16.28,2.42C88.9,93.59,73.07,97,65.28,91.92Z"/><path class="cls-6" d="M67,78.76c4.63-2.71,12,.4,12.59,6.31.72,7.79-10.52,9.88-14.65,4.55A7.64,7.64,0,0,1,67,78.76Z"/><path class="cls-5" d="M76,83.6a3.69,3.69,0,0,0,4.16,3.22,3.8,3.8,0,0,0,3.09-4.34A3.69,3.69,0,0,0,79,79.26,3.8,3.8,0,0,0,76,83.6Z"/><path class="cls-5" d="M111.88,97.11c-3.32-3.94-3.61-9.57,4-14.85,5.73-4,13.48.07,14.9,7.26C134,105.87,117.92,104.29,111.88,97.11Z"/><path class="cls-6" d="M117.22,85c5.18-1.18,11.4,4,10.28,9.86-1.49,7.67-12.83,6.26-15.28-.1A7.51,7.51,0,0,1,117.22,85Z"/><path class="cls-5" d="M124.42,92.39a3.8,3.8,0,0,0,3.08,4.35,3.69,3.69,0,0,0,4.17-3.21,3.8,3.8,0,0,0-3.08-4.35A3.69,3.69,0,0,0,124.42,92.39Z"/><path class="cls-1" d="M227.92,210.91c-.82-2.51-3.64-3.44-6.46-3.07-28.2,3.66-56.93.83-85.3.78-6.78,0-6.78,8.78,0,8.79,29.4,0,58.86,2.7,88.09-1.1A4.38,4.38,0,0,0,227.92,210.91Z"/><path class="cls-2" d="M248.43,204.44c-7,6.54-11-4-16.95-3.49-11.67.91-15,14.53-5.49,19.65,8.42,4.55,26.69-5.21,22.48-16.18Z"/><path class="cls-2" d="M71.41,62.41c-2.38.76-4.88,1.06-7.2,2-2.63,1-1.22,5.37,1.42,4.32,2.32-.93,4.83-1.23,7.2-2C75.53,65.87,74.11,61.55,71.41,62.41Z"/><path class="cls-2" d="M131,75.62a15.32,15.32,0,0,0-8.2-5.1c-2.73-.79-3.61,3.69-.9,4.47a10.47,10.47,0,0,1,5.46,3.17C129.14,80.43,132.8,77.92,131,75.62Z"/><path class="cls-4" d="M114.21,119.92c-5.37,8.88-19.11,5.74-21.62-4a1.39,1.39,0,0,0-2.68-.28c-3.62,10.12-18.44,7.77-20.41-2.32a1.4,1.4,0,1,0-2.76.48C69,125.57,84.87,129,91.07,119.58c5,9.51,19.28,12.18,25.43,2C117.45,120,115.18,118.33,114.21,119.92Z"/><path class="cls-3" d="M54.32,63.59s-10.4-10-.89-15S65,55.69,65,55.69Z"/><path class="cls-3" d="M130,63.9l8.8,9.47s12.44-8.51,6.1-15.77S130,63.9,130,63.9Z"/><path class="cls-7" d="M142.81,156.24a38.55,38.55,0,0,0-8.08-2.15c-17.28-2.47-24.9,11.75-19.17,31.68,1,3.52,11,29,15.55,28.23-6.71,1.19-15,3.36-18.46,9.1h32.46l25.13-1.62c7.18-3.35,12.78-8.67,13.37-17.14C185.1,182.78,159.36,162.47,142.81,156.24Z"/><path class="cls-7" d="M58.4,223.1H88.19a9.68,9.68,0,0,0,1-1.78c2.37-5.33,1.22-9.63-1.79-12.74-7.88-8.12-28.5-8-32.16,3.47-.93,2.93.54,6.41,1.78,9A10.45,10.45,0,0,0,58.4,223.1Z"/><path class="cls-7" d="M126.44,223.1a10.56,10.56,0,0,0,2.47-4.21c1.65-5.62-.05-9.71-3.44-12.36-8.87-6.93-29.28-3.9-31.41,8-.54,3,1.35,6.23,2.9,8.58Z"/></g></g></svg>